<?xml version="1.0" standalone="no"?>
<!DOCTYPE svg PUBLIC "-//W3C//DTD SVG 20010904//EN"
 "http://www.w3.org/TR/2001/REC-SVG-20010904/DTD/svg10.dtd">
<svg version="1.0" xmlns="http://www.w3.org/2000/svg"
 width="1320.000000pt" height="1320.000000pt" viewBox="0 0 1320.000000 1320.000000"
 preserveAspectRatio="xMidYMid meet">
<metadata>
Created by potrace 1.11, written by Peter Selinger 2001-2013
</metadata>
<g transform="translate(0.000000,1320.000000) scale(0.100000,-0.100000)"
fill="#000000" stroke="none">
<path d="M5137 8414 c-1 -1 -29 -5 -62 -9 -188 -21 -308 -85 -383 -206 -27
-44 -58 -122 -66 -169 -2 -14 -7 -36 -10 -50 -3 -14 -8 -45 -10 -70 -5 -43
-12 -102 -21 -180 -2 -19 -4 -47 -4 -62 l-1 -26 -121 1 c-66 1 -125 -1 -131
-4 -9 -6 -14 -82 -8 -114 1 -5 2 -14 1 -19 -2 -10 -1 -201 1 -227 1 -14 18
-16 127 -16 l126 1 2 -700 c1 -384 3 -771 4 -860 l1 -160 186 0 187 1 5 30 c3
16 3 58 0 93 -3 35 -4 65 -2 67 3 3 4 300 1 415 0 8 0 35 0 60 0 25 0 54 0 65
0 11 1 103 1 205 1 102 1 190 0 195 -2 6 -2 12 -1 15 1 3 2 95 1 205 -1 215
-1 218 0 284 0 24 -2 46 -4 49 -3 2 -1 12 4 21 8 15 36 17 274 17 l266 -1 0
191 0 190 -267 0 -268 1 1 49 c5 200 28 309 75 348 17 14 34 26 37 27 4 0 27
3 52 6 79 11 267 4 319 -11 9 -3 34 -8 55 -12 22 -3 49 -10 62 -14 31 -12 36
-4 80 135 43 137 49 165 34 166 -13 2 -14 2 -76 18 -54 13 -56 14 -114 24
-120 23 -157 27 -263 30 -48 2 -89 2 -90 1z"/>
<path d="M8678 8415 c-2 -2 -20 -6 -41 -9 -98 -16 -176 -109 -182 -220 -6
-113 73 -223 177 -246 35 -8 70 -10 94 -5 22 5 42 8 47 7 4 -1 7 2 7 8 0 6 6
10 14 10 23 0 86 68 107 116 50 113 4 254 -100 308 -29 15 -117 37 -123 31z"/>
<path d="M1452 8241 c-4 -3 -8 -744 -8 -1646 l1 -1640 412 -2 412 -1 0 179 0
179 -57 1 c-31 0 -130 1 -220 2 -125 2 -165 5 -171 16 -5 7 -8 577 -9 1267 l0
1255 22 11 c13 7 89 12 206 13 102 1 195 3 207 3 22 2 22 3 20 185 l-2 182
-402 1 c-222 0 -407 -2 -411 -5z"/>
<path d="M10959 8234 c-5 -7 -8 -87 -7 -185 l3 -174 217 -1 c120 0 221 -4 225
-8 11 -10 10 -2532 0 -2542 -4 -5 -106 -9 -225 -9 l-217 0 -3 -182 c-2 -142 1
-183 10 -184 72 -4 800 -1 804 4 5 4 9 3206 5 3282 -1 15 -800 14 -812 -1z"/>
<path d="M3275 7703 c-25 -4 -133 -25 -185 -38 -33 -7 -157 -60 -190 -80 -19
-12 -38 -23 -42 -24 -27 -5 -131 -112 -177 -181 -161 -241 -85 -600 159 -756
70 -44 221 -111 270 -119 3 0 43 -14 90 -30 47 -16 87 -30 90 -30 3 -1 18 -7
33 -13 15 -7 39 -15 53 -18 13 -3 27 -10 30 -15 3 -5 12 -9 20 -9 27 0 202
-88 232 -117 46 -45 66 -91 66 -159 0 -50 -5 -69 -29 -106 -47 -74 -149 -135
-279 -165 -104 -25 -305 -22 -419 6 -83 20 -276 92 -304 114 -9 6 -13 5 -14
-4 -1 -24 -33 -186 -57 -289 -4 -19 -7 -41 -6 -47 1 -7 2 -17 3 -23 1 -13 40
-32 133 -64 75 -26 95 -32 148 -42 14 -2 34 -6 46 -9 59 -13 177 -20 329 -18
146 1 184 5 266 26 53 14 116 34 142 46 25 12 49 21 52 21 36 0 275 200 275
229 0 5 6 16 13 23 16 15 62 128 71 173 4 17 9 41 11 55 10 44 6 195 -6 251
-36 176 -162 321 -355 410 -54 24 -362 133 -409 144 -5 1 -19 5 -30 9 -253 92
-277 105 -313 180 -32 65 -14 146 45 200 29 27 144 86 182 93 13 2 28 6 31 8
25 16 194 23 275 13 96 -13 117 -16 185 -32 91 -22 95 -21 109 22 30 97 78
308 72 315 -5 4 -28 10 -52 13 -24 2 -55 6 -69 9 -14 3 -43 8 -65 11 -22 3
-53 7 -70 10 -44 6 -325 12 -360 7z"/>
<path d="M10142 7670 c-125 -33 -231 -97 -321 -193 -25 -28 -51 -55 -57 -61
-5 -6 -19 -25 -29 -43 -37 -63 -45 -51 -44 65 1 173 0 204 -10 197 -5 -3 -12
-1 -15 4 -4 5 -19 6 -34 2 -32 -9 -84 -7 -100 3 -7 4 -17 4 -24 0 -6 -4 -48
-7 -94 -7 l-83 0 0 -1048 0 -1049 37 0 c50 -1 271 -1 302 0 l25 0 0 668 -1
667 36 56 c35 57 68 103 104 143 10 11 26 30 35 41 9 11 43 43 76 71 159 135
341 164 555 89 138 -49 148 -49 164 -5 7 19 19 49 26 65 7 17 14 32 15 35 1 3
6 16 12 30 6 14 21 50 33 80 12 30 26 59 31 65 16 17 10 24 -43 49 -128 60
-247 87 -403 91 -94 3 -136 0 -193 -15z"/>
<path d="M7986 7643 c-4 -4 -26 -7 -49 -8 l-41 0 -1 -187 0 -188 30 -1 c16 0
153 0 302 0 l273 -1 0 -856 c0 -470 2 -857 4 -859 3 -3 249 -6 334 -4 l22 1 0
1051 0 1051 -30 -4 c-16 -3 -30 -1 -30 4 0 5 -5 6 -11 2 -15 -9 -363 -9 -378
0 -6 4 -16 4 -23 0 -13 -8 -373 -8 -386 0 -5 3 -12 2 -16 -1z"/>
<path d="M5891 7630 c-4 -3 -7 -85 -7 -183 l0 -177 816 2 815 3 0 178 c1 97
-2 178 -5 178 -18 4 -1613 3 -1619 -1z"/>
<path d="M5885 6588 l0 -183 815 -1 816 -1 0 184 -1 183 -815 0 -816 0 1 -182z"/>
<path d="M5884 5895 c-2 -5 -5 -88 -7 -183 l-2 -172 818 0 c646 0 817 3 818
13 3 62 -1 341 -6 345 -11 11 -1617 8 -1621 -3z"/>
</g>
</svg>
